<svg xmlns="http://www.w3.org/2000/svg" xmlns:xlink="http://www.w3.org/1999/xlink" width="11"
    height="23.001" viewBox="0 0 11 23.001">
    <defs>
        <clipPath id="clip-path">
            <rect id="Rectangle_19" data-name="Rectangle 19" width="11" height="23" fill="none" />
        </clipPath>
    </defs>
    <g id="Arrow_Left" data-name="Arrow Left" transform="translate(-85 -14)">
        <g id="Arrow_Left-2" data-name="Arrow Left" transform="translate(85 14)">
            <g id="Group_34" data-name="Group 34">
                <g id="Group_33" data-name="Group 33" clip-path="url(#clip-path)">
                    <path id="Path_54" data-name="Path 54"
                        d="M10.856.157a.461.461,0,0,0-.693,0L.144,11.121a.572.572,0,0,0,0,.758l10.02,10.964a.461.461,0,0,0,.693,0,.572.572,0,0,0,0-.758L1.183,11.5,10.856.915a.572.572,0,0,0,0-.758" />
                </g>
            </g>
        </g>
        <path id="Color_Overlay" data-name="Color Overlay"
            d="M95.163,36.843,85.144,25.88a.571.571,0,0,1,0-.758l10.02-10.964a.46.46,0,0,1,.693,0,.573.573,0,0,1,0,.758L86.183,25.5l9.673,10.584a.574.574,0,0,1,0,.759.46.46,0,0,1-.693,0Z"
            fill="#fff" />
    </g>
</svg>
  