<svg xmlns="http://www.w3.org/2000/svg" width="20.998" height="20.998" viewBox="0 0 20.998 20.998">
    <g id="Close" transform="translate(-138.655 -71.897)">
        <path id="Path_50" data-name="Path 50"
            d="M152.363,79.187a.5.5,0,0,0-.7,0l-2.508,2.508-2.508-2.508a.5.5,0,0,0-.7.7l2.508,2.508L145.944,84.9a.5.5,0,1,0,.7.7l2.508-2.508,2.508,2.508a.5.5,0,0,0,.7-.7L149.855,82.4l2.508-2.508A.5.5,0,0,0,152.363,79.187Z"
            fill="#fff" />
        <path id="Path_51" data-name="Path 51"
            d="M149.154,71.9a10.5,10.5,0,1,0,10.5,10.5A10.511,10.511,0,0,0,149.154,71.9Zm0,20.006a9.507,9.507,0,1,1,9.507-9.507A9.518,9.518,0,0,1,149.154,91.9Z"
            fill="#fff" />
    </g>
</svg>
  