<svg xmlns="http://www.w3.org/2000/svg" xmlns:xlink="http://www.w3.org/1999/xlink" width="26" height="24" viewBox="0 0 26 24">
    <defs>
      <clipPath id="clip-path">
        <rect id="Rectangle_7" data-name="Rectangle 7" width="26" height="24" transform="translate(0 0.001)" fill="none"/>
      </clipPath>
    </defs>
    <g id="Vector_Smart_Object" data-name="Vector Smart Object" transform="translate(-912 -2755)">
      <g id="Vector_Smart_Object-2" data-name="Vector Smart Object" transform="translate(912 2755)">
        <g id="Group_14" data-name="Group 14">
          <g id="Group_13" data-name="Group 13" clip-path="url(#clip-path)">
            <path id="Path_11" data-name="Path 11" d="M21.657,12.437A4.282,4.282,0,0,1,18.772,11.3,4.242,4.242,0,0,1,13,11.3a4.243,4.243,0,0,1-5.772,0,4.286,4.286,0,0,1-2.885,1.133A4.382,4.382,0,0,1,0,8.025a1.04,1.04,0,0,1,.068-.371l2.685-7A1.008,1.008,0,0,1,3.692,0H21.807a1.006,1.006,0,0,1,.914.593l3.186,7A1.055,1.055,0,0,1,26,8.025a4.383,4.383,0,0,1-4.343,4.412M18.772,8.677a1,1,0,0,1,.873.514,2.3,2.3,0,0,0,2.013,1.2,2.35,2.35,0,0,0,2.322-2.162L21.164,2.044H4.379L2.019,8.2a2.35,2.35,0,0,0,2.325,2.192,2.294,2.294,0,0,0,2.011-1.2,1.04,1.04,0,0,1,1.748,0,2.285,2.285,0,0,0,4.024,0,1.039,1.039,0,0,1,1.747,0,2.285,2.285,0,0,0,4.024,0,1.008,1.008,0,0,1,.875-.514" fill="#f2eee8"/>
            <path id="Path_12" data-name="Path 12" d="M22.226,24H3.776A1.013,1.013,0,0,1,2.77,22.979V11.735a1.007,1.007,0,1,1,2.013,0V21.956H21.219V11.735a1.007,1.007,0,1,1,2.013,0V22.979A1.013,1.013,0,0,1,22.226,24" fill="#f2eee8"/>
            <path id="Path_13" data-name="Path 13" d="M18.86,22.979H7.119a.507.507,0,0,1-.5-.511v-7.5a.507.507,0,0,1,.5-.511H18.86a.507.507,0,0,1,.5.511v7.5a.507.507,0,0,1-.5.511M7.623,21.956H18.357V15.483H7.623Z" fill="#f2eee8"/>
            <path id="Path_14" data-name="Path 14" d="M22.733,4.238H3.359a.511.511,0,0,1,0-1.022H22.733a.511.511,0,0,1,0,1.022" fill="#f2eee8"/>
          </g>
        </g>
      </g>
      <path id="Color_Overlay" data-name="Color Overlay" d="M915.736,2779a1.014,1.014,0,0,1-.967-1.021v-10.841a4.418,4.418,0,0,1-2.769-4.112,1.045,1.045,0,0,1,.068-.371l2.686-7a1.008,1.008,0,0,1,.9-.649h18.2a1.006,1.006,0,0,1,.873.592l3.186,7a1.059,1.059,0,0,1,.093.429,4.417,4.417,0,0,1-2.768,4.111v10.842a1.014,1.014,0,0,1-.967,1.021Zm15.125-9.54a.507.507,0,0,1,.5.511v6.985h1.856v-9.543a3.719,3.719,0,0,0-5.332.023,4.243,4.243,0,0,0-5.771,0,3.72,3.72,0,0,0-5.333-.023v9.543h1.833v-6.985a.508.508,0,0,1,.5-.511Zm-11.237,7.5h10.734v-6.474H919.623Zm12.021-12.766a2.3,2.3,0,0,0,2.013,1.2,2.349,2.349,0,0,0,2.321-2.162l-1.816-3.993H915.539l-1.52,3.964a2.351,2.351,0,0,0,2.325,2.191,2.3,2.3,0,0,0,2.011-1.2,1.04,1.04,0,0,1,1.748,0,2.285,2.285,0,0,0,4.024,0,1.039,1.039,0,0,1,1.747,0,2.284,2.284,0,0,0,4.024,0,1,1,0,0,1,1.747,0Zm-15.714-5.975H933.7l-.533-1.171H916.379Z" fill="#cd6732"/>
    </g>
  </svg>
  