<svg id="TheHomeBud_logo" data-name="TheHomeBud logo" xmlns="http://www.w3.org/2000/svg"
    xmlns:xlink="http://www.w3.org/1999/xlink" width="230.334" height="72" viewBox="0 0 230.334 72">
    <defs>
        <clipPath id="clip-path">
            <rect id="Rectangle_25" data-name="Rectangle 25" width="230.334" height="72" fill="none" />
        </clipPath>
    </defs>
    <path id="Path_66" data-name="Path 66"
        d="M147.346,132.162h-6.129V105.267h6.129v10.726h8.671V105.267h6.13v26.895h-6.13v-10.79h-8.671Z"
        transform="translate(-81.364 -60.65)" fill="#c63" />
    <g id="Group_48" data-name="Group 48">
        <g id="Group_47" data-name="Group 47" clip-path="url(#clip-path)">
            <path id="Path_67" data-name="Path 67"
                d="M210.536,104.112a13.627,13.627,0,0,1,13.529,13.921c0,7.856-5.8,13.952-13.529,13.952-7.954,0-13.562-6.1-13.562-13.952a13.7,13.7,0,0,1,13.562-13.921m0,21.94c4.89,0,6.911-4.009,6.911-8.019s-2.151-8.019-6.911-8.019c-4.727,0-6.944,4.01-6.944,8.019s1.924,8.019,6.944,8.019"
                transform="translate(-113.488 -59.985)" fill="#c63" />
            <path id="Path_68" data-name="Path 68"
                d="M286.281,116.22h-.163L280.609,132h-3.651l-5.51-15.778h-.163l-1.271,15.942h-6.128l2.412-26.895h6.52l5.966,15.518,5.966-15.518h6.52l2.413,26.895h-6.129Z"
                transform="translate(-152.04 -60.651)" fill="#c63" />
            <path id="Path_69" data-name="Path 69"
                d="M355.41,110.646h-9.258v5.346h8.868v5.379h-8.868v5.412h9.258v5.379H340.022V105.267H355.41Z"
                transform="translate(-195.907 -60.651)" fill="#c63" />
            <path id="Path_70" data-name="Path 70"
                d="M392.972,105.268c4.629,0,8.281,1.727,8.281,6.845a6.146,6.146,0,0,1-3.358,5.771c3.358.587,5.738,2.445,5.738,6.781,0,4.433-3.228,7.5-8.8,7.5h-10.2V105.268ZM391.245,115.8c2.64,0,4.075-.815,4.075-3.064,0-1.924-1.4-2.739-4.075-2.739h-.49v5.8Zm1.434,11.638c2.9,0,4.5-.88,4.5-3,0-2.477-1.6-3.358-4.5-3.358h-1.923v6.357Z"
                transform="translate(-221.606 -60.651)" fill="#1e753f" />
            <path id="Path_71" data-name="Path 71"
                d="M456.073,122.611c0,6.65-3.651,10.04-10.5,10.04s-10.5-3.39-10.5-10.04V105.268h6.129v15.55c0,4.5,1.369,5.8,4.368,5.8s4.369-1.3,4.369-5.8v-15.55h6.129Z"
                transform="translate(-250.674 -60.651)" fill="#1e753f" />
            <path id="Path_72" data-name="Path 72"
                d="M500.856,105.268a13.448,13.448,0,1,1,0,26.894h-7.791V105.268Zm-.717,21.418c4.531,0,7.628-3.456,7.66-7.954,0-4.5-3.1-7.987-7.66-7.987h-.946v15.942Z"
                transform="translate(-284.084 -60.651)" fill="#1e753f" />
            <path id="Path_73" data-name="Path 73"
                d="M132.67,71.582h7.722v2.2h-2.61v8.788h-2.5V73.779h-2.61Z"
                transform="translate(-76.439 -41.243)" fill="#1e753f" />
            <path id="Path_74" data-name="Path 74"
                d="M155.525,82.567h-2.5V71.582h2.5v4.381h3.542V71.582h2.5V82.567h-2.5V78.16h-3.542Z"
                transform="translate(-88.165 -41.243)" fill="#1e753f" />
            <path id="Path_75" data-name="Path 75"
                d="M183.239,73.779h-3.782v2.184h3.622v2.2h-3.622v2.21h3.782v2.2h-6.285V71.583h6.285Z"
                transform="translate(-101.954 -41.243)" fill="#1e753f" />
            <path id="Path_76" data-name="Path 76"
                d="M60.2,86.84l-20.456-17.1-.095-.064A2.222,2.222,0,0,0,39,69.413l-.033-.02h-.077a.472.472,0,0,0-.064-.006l-.086-.008c-.027,0-.055,0-.086,0h-.042c-.03,0-.056,0-.1.006a.239.239,0,0,0-.06.006l-.179.025a2.231,2.231,0,0,0-.665.272l-.066.042-6.873,5.744V71.945A2.571,2.571,0,0,0,28.1,69.374H24.892a2.571,2.571,0,0,0-2.571,2.571v10.5l-5.255,4.392c-1.271.834-1.221,1.759-1.079,2.232.112.4.552,1.333,2.207,1.333h.8a.567.567,0,0,1,.518.46c.213,2.143.553,5.535.879,8.778.431,4.3.877,8.746.888,8.891l.012.077a3.513,3.513,0,0,0,3.407,3.035H36.088L36.1,99.282a.828.828,0,0,1,.828-.827h3.506a.829.829,0,0,1,.828.824l.058,12.368H52.577a3.513,3.513,0,0,0,3.412-3.083c.021-.254,1.651-16.541,1.767-17.7a.575.575,0,0,1,.518-.457h.806c1.654,0,2.094-.932,2.205-1.33A1.946,1.946,0,0,0,60.2,86.84"
                transform="translate(-9.17 -39.97)" fill="#c63" />
            <path id="Path_77" data-name="Path 77"
                d="M16.591,8.458l.128,12.88.056,5.713,1.5-1.877,8.041-10.062L18.479,25.332l-1.5,2.157,11.583-3.6L17.555,27.552l5.823.9-5.915-.79a12.418,12.418,0,0,0,8.6.916,13.829,13.829,0,0,0-7.592-1.2c-.137-.014,4.618-.494,6.072-.814a5.787,5.787,0,0,1,1.949-.641q1.1,0,1.1-.233.06-.4.358-.46a3.35,3.35,0,0,0,1.18-.391,2.144,2.144,0,0,0,1.365-.9,31.063,31.063,0,0,1,2.683-1.928,7.283,7.283,0,0,1-3.3.283A3.692,3.692,0,0,1,28,22.371l-1.449.4a17.806,17.806,0,0,0-2.264.575c-1,.247-6.744,3.582-6.683,3.534a39.763,39.763,0,0,1,4.97-3.09A4.651,4.651,0,0,1,23.956,22.7a4.738,4.738,0,0,0,1.309-.8,4.979,4.979,0,0,1,2.12-1.714L27,19.713l2.076-1.491L28.557,18a15.262,15.262,0,0,0,1.931-2.14l-.807-.053.9-1.1q.558-.647.317-.622l-.6.053,2.023-4.335-4.449,3.1-.024-.526a4.183,4.183,0,0,0-1.83,1.669c-.245-.317-.428-.4-.548-.259l-1.575,1.92-.582-.306a1.351,1.351,0,0,0-.579.914,1.238,1.238,0,0,1-.783,1.07.782.782,0,0,0-.675.646,1.268,1.268,0,0,1-.579,1,.8.8,0,0,0-.6.723,6.711,6.711,0,0,1-.742,1.833c-.276.614-2.179,4.513-2.169,4.48l1.642-4.214a3.448,3.448,0,0,1-.012-.693,13.591,13.591,0,0,1,.88-1.7q.275-.4.047-.524-.371-.178-.024-.669.418-.591.716-1.087a1.145,1.145,0,0,0,.132-1.231.583.583,0,0,1-.039-.506,11.654,11.654,0,0,0,.658-1.892h-.73q.45-1.5.826-2.838l-1.065-.025a22.288,22.288,0,0,0,.25-3.352L19.42,7.88a4.447,4.447,0,0,0-.256-2.95,6.628,6.628,0,0,1-.535.679L16.591,0l-2.039,5.61a6.563,6.563,0,0,1-.534-.679,4.45,4.45,0,0,0-.256,2.95l-1.042-.539a22.263,22.263,0,0,0,.251,3.352l-1.065.025q.377,1.334.826,2.838H12a11.672,11.672,0,0,0,.658,1.892.586.586,0,0,1-.039.506,1.145,1.145,0,0,0,.131,1.231q.3.5.718,1.087.346.491-.024.669-.229.125.046.524a13.649,13.649,0,0,1,.88,1.7,3.387,3.387,0,0,1-.012.693L16,26.072c.011.034-1.892-3.866-2.168-4.48a6.683,6.683,0,0,1-.742-1.833.8.8,0,0,0-.6-.723,1.267,1.267,0,0,1-.579-1,.782.782,0,0,0-.675-.646,1.237,1.237,0,0,1-.783-1.07,1.358,1.358,0,0,0-.58-.914l-.582.306-1.575-1.92c-.12-.145-.3-.058-.549.259a4.187,4.187,0,0,0-1.83-1.669l-.024.526L.863,9.808l2.023,4.335-.6-.053c-.161-.016-.056.191.317.622l.9,1.1-.807.053A15.235,15.235,0,0,0,4.625,18l-.521.217L6.18,19.713,5.8,20.18a4.979,4.979,0,0,1,2.121,1.714,4.717,4.717,0,0,0,1.309.8,4.65,4.65,0,0,1,1.385,1.089,39.672,39.672,0,0,1,4.971,3.09c.061.048-5.679-3.286-6.683-3.534a17.786,17.786,0,0,0-2.264-.575l-1.449-.4A3.691,3.691,0,0,1,3.3,22.3,7.285,7.285,0,0,1,0,22.012a30.732,30.732,0,0,1,2.682,1.928,2.151,2.151,0,0,0,1.366.9,3.351,3.351,0,0,0,1.179.391q.3.057.359.46,0,.23,1.1.233a5.79,5.79,0,0,1,1.949.641c1.454.32,6.208.8,6.072.814a13.828,13.828,0,0,0-7.592,1.2,12.417,12.417,0,0,0,8.6-.916l-5.914.79,5.822-.9L4.62,23.891l11.582,3.6-1.5-2.157L6.864,15.111,14.9,25.173l1.5,1.877.058-5.713Z"
                transform="translate(0 0.001)" fill="#1e753f" fill-rule="evenodd" />
        </g>
    </g>
</svg>
  