<svg xmlns="http://www.w3.org/2000/svg" xmlns:xlink="http://www.w3.org/1999/xlink" width="23" height="17.001" viewBox="0 0 23 17.001">
    <defs>
      <clipPath id="clip-path">
        <rect id="Rectangle_3" data-name="Rectangle 3" width="23" height="17" transform="translate(0 0)" fill="none"/>
      </clipPath>
    </defs>
    <g id="Vector_Smart_Object" data-name="Vector Smart Object" transform="translate(-915 -2860)">
      <g id="Vector_Smart_Object-2" data-name="Vector Smart Object" transform="translate(915 2860)">
        <g id="Group_6" data-name="Group 6">
          <g id="Group_5" data-name="Group 5" clip-path="url(#clip-path)">
            <path id="Path_3" data-name="Path 3" d="M20.63,17H2.371A2.4,2.4,0,0,1,0,14.584V2.414A2.4,2.4,0,0,1,2.371,0H20.63A2.4,2.4,0,0,1,23,2.414v12.17A2.4,2.4,0,0,1,20.63,17M2.371,2.048a.364.364,0,0,0-.361.366v12.17a.365.365,0,0,0,.361.368H20.63a.364.364,0,0,0,.359-.368V2.414a.363.363,0,0,0-.359-.366Z" fill="#f2eee8"/>
            <path id="Path_4" data-name="Path 4" d="M20.631,16.488H2.372A1.879,1.879,0,0,1,.628,15.259a.519.519,0,0,1,.136-.564L7.891,8.22a.494.494,0,0,1,.709.041.521.521,0,0,1-.039.723l-6.82,6.2a.857.857,0,0,0,.632.285H20.631a.856.856,0,0,0,.629-.284l-6.9-6.269a.52.52,0,0,1-.04-.723.5.5,0,0,1,.709-.041l7.206,6.548a.517.517,0,0,1,.134.563,1.871,1.871,0,0,1-1.74,1.23" fill="#f2eee8"/>
            <path id="Path_5" data-name="Path 5" d="M11.5,11.886a.5.5,0,0,1-.336-.13L.763,2.305a.517.517,0,0,1-.135-.564A1.876,1.876,0,0,1,2.371.512H20.63a1.871,1.871,0,0,1,1.741,1.23.516.516,0,0,1-.135.563l-10.4,9.45a.491.491,0,0,1-.334.13M1.741,1.821l9.76,8.866L21.26,1.82a.855.855,0,0,0-.63-.284H2.371a.846.846,0,0,0-.63.285" fill="#f2eee8"/>
          </g>
        </g>
      </g>
      <path id="Color_Overlay" data-name="Color Overlay" d="M917.372,2877a2.4,2.4,0,0,1-2.372-2.416v-12.171a2.4,2.4,0,0,1,2.372-2.414H935.63a2.4,2.4,0,0,1,2.37,2.414v12.171a2.4,2.4,0,0,1-2.37,2.416Zm-.258-2.16a.358.358,0,0,0,.258.112H935.63a.352.352,0,0,0,.256-.111l-6.223-5.656-2.83,2.57a.493.493,0,0,1-.334.13.5.5,0,0,1-.336-.13l-2.828-2.57Zm-.1-1.277,5.571-5.062-5.571-5.062Zm13.407-5.063,5.571,5.062v-10.122Zm-13.3-6.34,9.387,8.528,9.386-8.528a.352.352,0,0,0-.256-.111H917.372A.358.358,0,0,0,917.114,2862.159Z" fill="#cd6732"/>
    </g>
  </svg>
  