<svg xmlns="http://www.w3.org/2000/svg" width="25.815" height="19.133" viewBox="0 0 25.815 19.133">
  <path id="quote" d="M12.472-56.777q-5.063,2.49-5.063,5.852a5.589,5.589,0,0,1,3.569,1.764,4.99,4.99,0,0,1,1.411,3.507,5.007,5.007,0,0,1-1.37,3.569,4.535,4.535,0,0,1-3.445,1.453,5.252,5.252,0,0,1-4.026-1.888,6.607,6.607,0,0,1-1.7-4.586q0-8.093,9.048-12.659Zm-15.19,0q-5.1,2.49-5.1,5.852a5.627,5.627,0,0,1,3.611,1.764A4.99,4.99,0,0,1-2.8-45.654a4.966,4.966,0,0,1-1.39,3.569,4.6,4.6,0,0,1-3.466,1.453,5.19,5.19,0,0,1-4.005-1.888,6.655,6.655,0,0,1-1.681-4.586q0-8.093,9.006-12.659Z" transform="translate(13.344 59.766)" fill="#fff"/>
</svg>
