<svg xmlns="http://www.w3.org/2000/svg" xmlns:xlink="http://www.w3.org/1999/xlink" width="24" height="24" viewBox="0 0 24 24">
    <defs>
      <clipPath id="clip-path">
        <rect id="Rectangle_5" data-name="Rectangle 5" width="24" height="24" transform="translate(0 0.001)" fill="none"/>
      </clipPath>
    </defs>
    <g id="Vector_Smart_Object" data-name="Vector Smart Object" transform="translate(-915 -2814)">
      <g id="Vector_Smart_Object-2" data-name="Vector Smart Object" transform="translate(915 2814)">
        <g id="Group_10" data-name="Group 10">
          <g id="Group_9" data-name="Group 9" clip-path="url(#clip-path)">
            <path id="Path_9" data-name="Path 9" d="M18.936,24A18.857,18.857,0,0,1,5.884,18.188L5.81,18.11h0A18.711,18.711,0,0,1,0,4.719l.008-.345L.226,4.1A12.483,12.483,0,0,1,5.607.118,1.862,1.862,0,0,1,6.28,0c.557,0,1.808.283,2.13,1.16C8.973,2.726,9.685,4.77,10.2,6.725a2.469,2.469,0,0,1-.765,2.358L7.612,10.24a1.376,1.376,0,0,0,.247.625,25.664,25.664,0,0,0,2.44,2.858,25.472,25.472,0,0,0,2.837,2.417,1.033,1.033,0,0,0,.571.217l.631-.882.583-.916a2.464,2.464,0,0,1,1.916-.808,1.845,1.845,0,0,1,.4.04,25.99,25.99,0,0,1,5.675,1.832A2.456,2.456,0,0,1,23.88,18.4a12.417,12.417,0,0,1-3.985,5.377l-.269.212ZM2.067,5.114A16.993,16.993,0,0,0,7.273,16.655l.1.1a16.777,16.777,0,0,0,11.517,5.177c.241-.2.47-.409.686-.623a10.519,10.519,0,0,0,2.38-3.66c-.01-.008-.051-.134-.1-.236a24.193,24.193,0,0,0-5.073-1.608,2.233,2.233,0,0,0-.242.051L15.505,17.5a2.534,2.534,0,0,1-3.589.313,27.423,27.423,0,0,1-3.079-2.624,28.006,28.006,0,0,1-2.648-3.1,2.929,2.929,0,0,1-.567-2.259A1.993,1.993,0,0,1,6.515,8.49L8.147,7.454a1.119,1.119,0,0,0,.042-.286c-.455-1.69-1.1-3.557-1.628-5.043a.944.944,0,0,0-.281-.059A10.556,10.556,0,0,0,2.689,4.43c-.21.211-.416.436-.622.684" fill="#f2eee8"/>
          </g>
        </g>
      </g>
      <path id="Color_Overlay" data-name="Color Overlay" d="M920.885,2832.188l-.074-.078h0A18.709,18.709,0,0,1,915,2818.719l.008-.345.213-.269a12.493,12.493,0,0,1,5.38-3.987,1.828,1.828,0,0,1,.612-.117h.118c.581.018,1.763.31,2.074,1.159.563,1.566,1.275,3.61,1.794,5.565a2.466,2.466,0,0,1-.764,2.357l-1.827,1.158a1.372,1.372,0,0,0,.247.625,25.722,25.722,0,0,0,2.44,2.857,25.413,25.413,0,0,0,2.838,2.417,1.027,1.027,0,0,0,.571.217l.632-.882.582-.917a2.466,2.466,0,0,1,1.916-.807,1.838,1.838,0,0,1,.4.041,25.962,25.962,0,0,1,5.674,1.831A2.379,2.379,0,0,1,939,2831.67v.075a1.856,1.856,0,0,1-.12.653,12.392,12.392,0,0,1-3.985,5.377l-.268.212-.69.011A18.858,18.858,0,0,1,920.885,2832.188Zm-3.2-13.758c-.21.211-.416.437-.622.684a17,17,0,0,0,5.206,11.542l.1.1a16.774,16.774,0,0,0,11.516,5.177c.241-.2.47-.408.686-.623a10.5,10.5,0,0,0,2.38-3.66c-.01-.008-.05-.134-.094-.236a24.258,24.258,0,0,0-5.073-1.607,2.1,2.1,0,0,0-.242.051l-1.04,1.637a2.534,2.534,0,0,1-3.588.313,27.379,27.379,0,0,1-3.079-2.625,27.832,27.832,0,0,1-2.649-3.1,2.925,2.925,0,0,1-.567-2.259,1.99,1.99,0,0,1,.893-1.335l1.633-1.037a1.17,1.17,0,0,0,.042-.286c-.454-1.69-1.1-3.557-1.629-5.043a.955.955,0,0,0-.281-.058A10.557,10.557,0,0,0,917.689,2818.429Z" fill="#cd6732"/>
    </g>
  </svg>
  