<svg xmlns="http://www.w3.org/2000/svg" width="60" height="60" viewBox="0 0 60 60">
    <path id="Icon_awesome-plus" data-name="Icon awesome-plus"
        d="M55.714,25.821H36.429V6.536A4.286,4.286,0,0,0,32.143,2.25H27.857a4.286,4.286,0,0,0-4.286,4.286V25.821H4.286A4.286,4.286,0,0,0,0,30.107v4.286a4.286,4.286,0,0,0,4.286,4.286H23.571V57.964a4.286,4.286,0,0,0,4.286,4.286h4.286a4.286,4.286,0,0,0,4.286-4.286V38.679H55.714A4.286,4.286,0,0,0,60,34.393V30.107A4.286,4.286,0,0,0,55.714,25.821Z"
        transform="translate(0 -2.25)" fill="#333" />
</svg>
  