<svg id="Social_Icons" data-name="Social Icons" xmlns="http://www.w3.org/2000/svg" xmlns:xlink="http://www.w3.org/1999/xlink" width="226" height="52" viewBox="0 0 226 52">
    <defs>
      <clipPath id="clip-path">
        <rect id="Rectangle_14" data-name="Rectangle 14" width="226" height="52" fill="none"/>
      </clipPath>
    </defs>
    <path id="Path_37" data-name="Path 37" d="M211.5,21.786V17.218l-.592,0-3.957.014.015,4.566Z" fill="#ccc"/>
    <g id="Group_22" data-name="Group 22">
      <g id="Group_21" data-name="Group 21" clip-path="url(#clip-path)">
        <path id="Path_38" data-name="Path 38" d="M201.191,32.332a4.739,4.739,0,1,0-4.723-4.742,4.739,4.739,0,0,0,4.723,4.742" fill="#ccc"/>
        <path id="Path_39" data-name="Path 39" d="M201.314,2.423A24.789,24.789,0,1,0,226,27.211,24.737,24.737,0,0,0,201.314,2.423m13.3,22.4V35.857a5.2,5.2,0,0,1-5.187,5.207H192.957a5.2,5.2,0,0,1-5.186-5.207V19.322a5.2,5.2,0,0,1,5.186-5.208h16.467a5.2,5.2,0,0,1,5.187,5.208Z" fill="#ccc"/>
        <path id="Path_40" data-name="Path 40" d="M208.53,27.589a7.338,7.338,0,1,1-14.137-2.766h-4.006V35.857a2.579,2.579,0,0,0,2.571,2.581h16.467a2.579,2.579,0,0,0,2.571-2.581V24.823h-4.008a7.325,7.325,0,0,1,.543,2.766" fill="#ccc"/>
        <path id="Path_41" data-name="Path 41" d="M83.565.317A24.79,24.79,0,1,0,108.25,25.107,24.739,24.739,0,0,0,83.565.317m13.75,36.83a2.016,2.016,0,0,1-2.036,2H71.8a2.015,2.015,0,0,1-2.036-2V13.3a2.016,2.016,0,0,1,2.036-2H95.277a2.018,2.018,0,0,1,2.036,2V37.147Z" fill="#ccc"/>
        <path id="Path_42" data-name="Path 42" d="M88.329,21.745a4.127,4.127,0,0,0-3.75,2.075v.041h-.027a.224.224,0,0,0,.027-.041V22.04H80.419c.055,1.178,0,12.567,0,12.567h4.161v-7.02a2.858,2.858,0,0,1,.137-1.019,2.285,2.285,0,0,1,2.134-1.53c1.508,0,2.109,1.154,2.109,2.843v6.725h4.161V27.4c0-3.862-2.055-5.657-4.792-5.657" fill="#ccc"/>
        <path id="Path_43" data-name="Path 43" d="M76.063,15.978a2.178,2.178,0,1,0-.055,4.346h.027a2.179,2.179,0,1,0,.028-4.346" fill="#ccc"/>
        <rect id="Rectangle_13" data-name="Rectangle 13" width="4.162" height="12.567" transform="translate(73.955 22.04)" fill="#ccc"/>
        <path id="Path_44" data-name="Path 44" d="M142.439,1.211A24.789,24.789,0,1,0,167.125,26,24.74,24.74,0,0,0,142.439,1.211M154.875,21c.013.268.018.537.018.809,0,8.255-6.258,17.773-17.7,17.773a17.564,17.564,0,0,1-9.537-2.806,12.672,12.672,0,0,0,1.484.087,12.449,12.449,0,0,0,7.727-2.674,6.234,6.234,0,0,1-5.811-4.34,6.052,6.052,0,0,0,1.17.112,6.2,6.2,0,0,0,1.639-.217,6.246,6.246,0,0,1-4.992-6.125c0-.027,0-.054,0-.082a6.181,6.181,0,0,0,2.818.782,6.272,6.272,0,0,1-1.926-8.341,17.632,17.632,0,0,0,12.825,6.526,6.257,6.257,0,0,1,6.06-7.669,6.2,6.2,0,0,1,4.541,1.972,12.42,12.42,0,0,0,3.951-1.516,6.255,6.255,0,0,1-2.737,3.455,12.365,12.365,0,0,0,3.574-.983,12.594,12.594,0,0,1-3.1,3.235" fill="#ccc"/>
        <path id="Path_45" data-name="Path 45" d="M24.688,0A24.789,24.789,0,1,0,49.376,24.789,24.74,24.74,0,0,0,24.688,0m6.534,24.686H26.947V39.994H20.61V24.686H17.6v-5.4H20.61v-3.5c0-2.507,1.185-6.42,6.4-6.42l4.692.018v5.25H28.291A1.291,1.291,0,0,0,26.948,16.1v3.184h4.83Z" fill="#ccc"/>
      </g>
    </g>
  </svg>
  