<svg xmlns="http://www.w3.org/2000/svg" width="16.086" height="14.988" viewBox="0 0 16.086 14.988">
    <path id="star" d="M204.515,1125.967h-5.282l-1.605-4.806a.581.581,0,0,0-1.092,0l-1.605,4.806h-5.318a.577.577,0,0,0-.574.577.425.425,0,0,0,.011.1.556.556,0,0,0,.241.408l4.341,3.069-1.666,4.859a.58.58,0,0,0,.2.649.556.556,0,0,0,.323.14.7.7,0,0,0,.357-.13l4.239-3.03,4.239,3.03a.67.67,0,0,0,.357.13.517.517,0,0,0,.32-.14.572.572,0,0,0,.2-.649l-1.667-4.86,4.305-3.1.1-.09a.551.551,0,0,0-.421-.962Z" transform="translate(-189.038 -1120.779)" fill="#c29447"/>
</svg>
  