<svg id="Group_42" data-name="Group 42" xmlns="http://www.w3.org/2000/svg"
    xmlns:xlink="http://www.w3.org/1999/xlink" width="32" height="16" viewBox="0 0 32 16">
    <defs>
        <clipPath id="clip-path">
            <rect id="Rectangle_23" data-name="Rectangle 23" width="32" height="16" fill="none" />
        </clipPath>
    </defs>
    <g id="Group_41" data-name="Group 41" clip-path="url(#clip-path)">
        <path id="Path_58" data-name="Path 58"
            d="M31.822,5.874,29.334,2.7a.89.89,0,0,0-.711-.324H23.36a.886.886,0,0,0-.889.9v8.288H21.9V.9a.886.886,0,0,0-.889-.9H10.2a.886.886,0,0,0-.889.9.886.886,0,0,0,.889.9h9.92v9.766H9.529a2.862,2.862,0,0,0-5.049,0h-1a.9.9,0,0,0,0,1.8h.64A2.935,2.935,0,0,0,7,16a2.935,2.935,0,0,0,2.88-2.631H24.675a2.892,2.892,0,0,0,5.76,0h.676a.886.886,0,0,0,.889-.9V6.45a1.1,1.1,0,0,0-.178-.577ZM7,14.2a1.153,1.153,0,1,1,1.138-1.153A1.154,1.154,0,0,1,7,14.2M24.249,4.18H28.2l2.027,2.559v4.829H30.08a2.862,2.862,0,0,0-5.049,0h-.782ZM27.556,14.2a1.153,1.153,0,1,1,1.138-1.153A1.131,1.131,0,0,1,27.556,14.2"
            fill="#fff" />
        <path id="Path_59" data-name="Path 59"
            d="M6.151,1.8h1A.886.886,0,0,0,8.036.9.886.886,0,0,0,7.147,0h-1a.886.886,0,0,0-.889.9.909.909,0,0,0,.889.9"
            fill="#fff" />
        <path id="Path_60" data-name="Path 60"
            d="M1.742,1.8H3.449A.886.886,0,0,0,4.338.9.886.886,0,0,0,3.449,0H1.742A.886.886,0,0,0,.853.9a.886.886,0,0,0,.889.9"
            fill="#fff" />
        <path id="Path_61" data-name="Path 61"
            d="M6.578,4.757a.886.886,0,0,0-.889-.9H.889a.9.9,0,0,0,0,1.8h4.8a.909.909,0,0,0,.889-.9"
            fill="#fff" />
        <path id="Path_62" data-name="Path 62"
            d="M3.485,7.712a.9.9,0,0,0,0,1.8H7.5a.9.9,0,0,0,0-1.8Z" fill="#fff" />
    </g>
</svg>
  